<svg xmlns="http://www.w3.org/2000/svg" xmlns:xlink="http://www.w3.org/1999/xlink" version="1.1" x="0px" y="0px" viewBox="0 0 64 80" enable-background="new 0 0 64 64" xml:space="preserve"><g><g><path d="M48.3515625,26.4202862c1.8193359,0,3.5742188-0.9208984,5.1132813-1.7285156    c2.8925781-1.5175781,4.7714844-2.3417969,6.8105469-0.1953125c0.28125,0.2958984,0.7167969,0.3886719,1.0957031,0.2392578    C61.7509766,24.5833721,62,24.2161846,62,23.8070049v-9.999999c0-0.2568359-0.0986328-0.5039063-0.2753906-0.6894531    c-3.1855469-3.3466797-6.5146484-1.6005859-9.1894531-0.1962891c-2.8945313,1.5185547-4.7714844,2.3388672-6.8105469,0.1962891    c-0.2822266-0.296875-0.7177734-0.390625-1.0957031-0.2392578C44.2490234,13.0306387,44,13.3978262,44,13.8070059v9.999999    v14.9977436c-0.8574219,0.3125-1.5600586,0.6417847-2,0.8665161c-5.0368042-2.6254272-8.6329956-1.7324829-10.921814-0.2786865    l-3.7217407-2.9752197c-1.8818359-1.5126953-4.4169922-1.8378906-6.6171875-0.8525391    c-3.5264282,1.5897217-6.8670044,5.2759399-9.1481934,8.2421875H3c-0.5527344,0-1,0.4472656-1,1c0,4.4111328,3.5888672,8,8,8h44    c2.1367188,0,4.1455078-0.8320313,5.6572266-2.3427734C61.1679688,48.9525146,62,46.9437256,62,44.8070068    c0-0.5527344-0.4472656-1-1-1h-5.4741821c-0.6873779-2.6107788-2.0177612-4.3873291-3.9769897-5.2675781    C49.7627563,37.736145,47.7518921,37.8272095,46,38.2146606V25.8294048    C46.7878418,26.244688,47.5755615,26.4202862,48.3515625,26.4202862z M21.5595703,37.3890381    c1.5087891-0.6757813,3.2509766-0.453125,4.5458984,0.5888672l4.2964478,3.4349976    c0.0018311,0.0014648,0.0025024,0.0039673,0.0043335,0.0054321l2.9900513,2.3886719H14.1386719    C16.1923828,41.30896,18.8583984,38.6068115,21.5595703,37.3890381z M58.2431641,49.0501709    C57.109375,50.1829834,55.6025391,50.8070068,54,50.8070068H10c-2.9677734,0-5.4394531-2.1660156-5.9169922-5h7.9970703H36.25    h18.4902344h5.1777344C59.7138672,47.0296631,59.1367188,48.1556396,58.2431641,49.0501709z M50.7333984,40.3656006    c1.2578125,0.5664063,2.1699219,1.7216797,2.7197266,3.4414063H36.6005859l-0.2606201-0.2081909l-3.5813599-2.862915    c1.9053345-0.9475708,4.7689819-1.2719727,8.7550659,0.9451294c0.3076172,0.1708984,0.6835938,0.1669922,0.9892578-0.0097656    C42.5517578,41.6429443,47.4072266,38.8626709,50.7333984,40.3656006z M46,15.8372793    c2.6367188,1.3916006,5.2695313,0.0058594,7.4648438-1.1455078C56.2275391,13.2425528,58.0634766,12.4271231,60,14.2239981    v7.5517569c-2.6347656-1.3876953-5.2705078-0.0068359-7.4648438,1.1455078    c-2.7626953,1.4501953-4.5986328,2.265625-6.5351563,0.46875V15.8372793z"/><path d="M14.9443359,25.5550518C15.6572266,26.1234112,16,26.425169,16,27.0550518    c0,0.6367188-0.3417969,0.9384766-1.0527344,1.5068359c-0.5742188,0.4589844-1.2255859,0.9804688-1.5712891,1.8427734    c-0.2060547,0.5117188,0.0429688,1.0947266,0.5556641,1.2998047c0.1220703,0.0498047,0.2480469,0.0722656,0.3720703,0.0722656    c0.3964844,0,0.7714844-0.2373047,0.9277344-0.6279297c0.1503906-0.3730469,0.5283203-0.6757813,0.9658203-1.0253906    C16.9580078,29.5150127,18,28.6810284,18,27.0550518c0-1.6210938-1.0449219-2.4550781-1.8085938-3.0634766    c-0.7158203-0.5703125-1.0595703-0.8730469-1.0595703-1.5107422c0-0.6347656,0.3447266-0.9365234,1.0605469-1.5068359    c0.5917969-0.4707031,1.2636719-1.0048828,1.6044922-1.9013672c0.1962891-0.515625-0.0625-1.09375-0.5791016-1.2900391    c-0.5185547-0.1992188-1.0927734,0.0615234-1.2900391,0.5791016c-0.1464844,0.3837891-0.5332031,0.6914063-0.9804688,1.0478516    c-0.7666016,0.609375-1.8154297,1.4443359-1.8154297,3.0712891    C13.1318359,24.1097393,14.1796875,24.9456768,14.9443359,25.5550518z"/><path d="M22.2714844,25.5560284c0.7148438,0.5683594,1.0585938,0.8691406,1.0585938,1.4990234    c0,0.6347656-0.3427734,0.9365234-1.0556641,1.5048828c-0.5771484,0.4599609-1.2304688,0.9814453-1.5771484,1.8447266    c-0.2060547,0.5117188,0.0429688,1.0947266,0.5556641,1.2998047C21.375,31.7542706,21.5009766,31.7767315,21.625,31.7767315    c0.3964844,0,0.7714844-0.2373047,0.9277344-0.6279297c0.1503906-0.3730469,0.5292969-0.6748047,0.96875-1.0253906    c0.7626953-0.6083984,1.8085938-1.4414063,1.8085938-3.0683594c0-1.6220703-1.0488281-2.4560547-1.8134766-3.0644531    c-0.71875-0.5703125-1.0634766-0.8730469-1.0634766-1.5097656c0-0.6347656,0.3447266-0.9365234,1.0605469-1.5068359    c0.5917969-0.4707031,1.2636719-1.0048828,1.6044922-1.9013672c0.1962891-0.515625-0.0625-1.09375-0.5791016-1.2900391    c-0.5175781-0.1992188-1.0927734,0.0615234-1.2900391,0.5791016c-0.1464844,0.3837891-0.5332031,0.6914063-0.9804688,1.0478516    c-0.7666016,0.609375-1.8154297,1.4443359-1.8154297,3.0712891C20.453125,24.1107159,21.5039063,24.9456768,22.2714844,25.5560284    z"/><path d="M29.8125,25.5843487c0.7128906,0.5683594,1.0556641,0.8701172,1.0556641,1.5009766    c0,0.6357422-0.3417969,0.9375-1.0517578,1.5048828c-0.5751953,0.4609375-1.2265625,0.9814453-1.5722656,1.8447266    c-0.2060547,0.5126953,0.0429688,1.0947266,0.5556641,1.2998047c0.1220703,0.0498047,0.2480469,0.0722656,0.3720703,0.0722656    c0.3964844,0,0.7714844-0.2373047,0.9277344-0.6279297c0.1503906-0.3740234,0.5283203-0.6767578,0.9658203-1.0263672    c0.7607422-0.6083984,1.8027344-1.4423828,1.8027344-3.0673828c0-1.6220703-1.0458984-2.4560547-1.8085938-3.0644531    C30.34375,23.4505596,30,23.1478252,30,22.5111065c0-0.6347656,0.34375-0.9365234,1.0605469-1.5068359    c0.5917969-0.4716797,1.2636719-1.0058594,1.6044922-1.9023438c0.1962891-0.515625-0.0625-1.09375-0.5791016-1.2900391    c-0.5175781-0.1972656-1.09375,0.0625-1.2900391,0.5791016c-0.1464844,0.3837891-0.5332031,0.6914063-0.9814453,1.0488281    C29.0488281,20.0491924,28,20.8841534,28,22.5111065C28,24.1390362,29.0478516,24.9749737,29.8125,25.5843487z"/></g></g><text x="0" y="79" fill="#000000" font-size="5px" font-weight="bold" font-family="'Helvetica Neue', Helvetica, Arial-Unicode, Arial, Sans-serif">Created by Asheeqa</text><text x="0" y="84" fill="#000000" font-size="5px" font-weight="bold" font-family="'Helvetica Neue', Helvetica, Arial-Unicode, Arial, Sans-serif">from the Noun Project</text></svg>